<svg aria-hidden="true" style="width:0;height:0;position:absolute;overflow:hidden" xmlns="http://www.w3.org/2000/svg"><defs><symbol id="icon-event" viewBox="0 0 32 32"><path d="M24 17.6h-8v8h8v-8zM22.4 0v3.2H9.6V0H6.4v3.2H4.8a3.21 3.21 0 0 0-3.2 3.2v22.4c0 1.76 1.44 3.2 3.2 3.2h22.4c1.76 0 3.2-1.44 3.2-3.2V6.4c0-1.76-1.44-3.2-3.2-3.2h-1.6V0h-3.2zm4.8 28.8H4.8V11.2h22.4v17.6z"/></symbol><symbol id="icon-home" viewBox="0 0 32 32"><path d="M16 4S7.752 11.12 3.143 14.976A1.387 1.387 0 0 0 2.667 16c0 .737.596 1.333 1.333 1.333h2.667v9.333c0 .737.596 1.333 1.333 1.333h4c.737 0 1.333-.597 1.333-1.333v-5.333h5.333v5.333c0 .736.596 1.333 1.333 1.333h4c.737 0 1.333-.596 1.333-1.333v-9.333h2.667c.737 0 1.333-.596 1.333-1.333 0-.421-.205-.779-.511-1.024C24.244 11.12 15.998 4 15.998 4z"/></symbol><symbol id="icon-instagram" viewBox="0 0 32 32"><path d="M10.667 2.667h10.667a8 8 0 0 1 8 8v10.667a8 8 0 0 1-8 8H10.667a8 8 0 0 1-8-8V10.667a8 8 0 0 1 8-8zm0 2.666a5.333 5.333 0 0 0-5.333 5.333v10.667a5.333 5.333 0 0 0 5.333 5.333h10.667a5.333 5.333 0 0 0 5.333-5.333V10.666a5.333 5.333 0 0 0-5.333-5.333H10.667zM16 22.667a6.667 6.667 0 1 1 0-13.334 6.667 6.667 0 0 1 0 13.334zM16 20a4 4 0 1 0 0-8 4 4 0 0 0 0 8zm6.667-9.333a1.333 1.333 0 1 1 0-2.667 1.333 1.333 0 0 1 0 2.667z"/></symbol><symbol id="icon-phone" viewBox="0 0 32 32"><path stroke-linejoin="round" stroke-linecap="round" stroke-width="2.667" d="M20.067 6.667c2.666.534 4.733 2.6 5.26 5.224l.007.043M20.067 1.333c5.575.637 9.956 5.014 10.595 10.531l.005.056m-1.334 10.64v4.011a2.667 2.667 0 0 1-2.918 2.655l.011.001c-4.327-.482-8.236-1.943-11.607-4.155l.1.062C11.677 23.053 9 20.376 6.981 17.237l-.062-.103C4.761 13.848 3.299 9.92 2.836 5.692l-.01-.118a2.667 2.667 0 0 1 2.653-2.907h4.026c1.341 0 2.451.99 2.639 2.279l.002.014c.188 1.4.515 2.665.973 3.864l-.039-.117a2.655 2.655 0 0 1-.6 2.813l-1.693 1.693c1.932 3.356 4.644 6.068 7.897 7.945l.103.055 1.693-1.693a2.66 2.66 0 0 1 2.832-.594l-.018-.006c1.082.418 2.347.745 3.658.924l.089.01a2.67 2.67 0 0 1 2.294 2.641l-.001.07v-.003z"/></symbol><symbol id="icon-play" viewBox="0 0 32 32"><path stroke-linejoin="round" stroke-linecap="round" stroke-width="2.667" d="m6.667 4 18.667 12L6.667 28V4z"/></symbol><symbol id="icon-shopping" viewBox="0 0 32 32"><path d="M27.675 7.127a1.337 1.337 0 0 0-1.008-.46H8.242l-.26-1.552A1.334 1.334 0 0 0 6.667 4h-3a1.332 1.332 0 1 0 0 2.666h1.871l2.48 14.885c.011.06.041.109.06.165.021.071.039.137.072.201.043.088.1.163.16.239.041.052.079.104.127.149.077.072.167.123.257.173.051.028.095.065.149.087.155.063.317.1.489.1H24a1.332 1.332 0 1 0 0-2.666H10.463l-.221-1.333h15.092c.664 0 1.227-.488 1.32-1.144l1.333-9.333a1.336 1.336 0 0 0-.312-1.063zm-2.546 2.206L24.749 12H20V9.333h5.129zm-6.462 0V12h-4V9.333h4zm0 4V16h-4v-2.667h4zm-5.334-4V12h-4a.633.633 0 0 0-.197.04l-.451-2.707h4.648zm-3.981 4h3.981V16H9.796l-.444-2.667zM20 16v-2.667h4.557L24.177 16H20zM13.333 26a2 2 0 1 1-3.999.001A2 2 0 0 1 13.333 26zM25.333 26a2 2 0 1 1-3.999.001A2 2 0 0 1 25.333 26z"/></symbol></defs></svg>