<svg aria-hidden="true" style="position: absolute; width: 0; height: 0; overflow: hidden;" version="1.1" xmlns="http://www.w3.org/2000/svg" xmlns:xlink="http://www.w3.org/1999/xlink">
<defs>
<symbol id="icon-event" viewBox="0 0 32 32">
<path d="M24 17.6h-8v8h8v-8zM22.4 0v3.2h-12.8v-3.2h-3.2v3.2h-1.6c-1.76 0-3.2 1.44-3.2 3.2v22.4c0 1.76 1.44 3.2 3.2 3.2h22.4c1.76 0 3.2-1.44 3.2-3.2v-22.4c0-1.76-1.44-3.2-3.2-3.2h-1.6v-3.2h-3.2zM27.2 28.8h-22.4v-17.6h22.4v17.6z"></path>
</symbol>
<symbol id="icon-home" viewBox="0 0 32 32">
<path d="M16 4c0 0-8.248 7.12-12.857 10.976-0.271 0.245-0.476 0.603-0.476 1.024 0 0.737 0.596 1.333 1.333 1.333h2.667v9.333c0 0.737 0.596 1.333 1.333 1.333h4c0.737 0 1.333-0.597 1.333-1.333v-5.333h5.333v5.333c0 0.736 0.596 1.333 1.333 1.333h4c0.737 0 1.333-0.596 1.333-1.333v-9.333h2.667c0.737 0 1.333-0.596 1.333-1.333 0-0.421-0.205-0.779-0.511-1.024-4.577-3.856-12.823-10.976-12.823-10.976z"></path>
</symbol>
<symbol id="icon-instagram" viewBox="0 0 32 32">
<path d="M10.667 2.667h10.667c4.418 0 8 3.582 8 8v10.667c0 4.418-3.582 8-8 8h-10.667c-4.418 0-8-3.582-8-8v-10.667c0-4.418 3.582-8 8-8zM10.667 5.333c-2.946 0-5.333 2.388-5.333 5.333v10.667c0 2.946 2.388 5.333 5.333 5.333h10.667c2.946 0 5.333-2.388 5.333-5.333v-10.667c0-2.946-2.388-5.333-5.333-5.333h-10.667zM16 22.667c-3.682 0-6.667-2.985-6.667-6.667s2.985-6.667 6.667-6.667c3.682 0 6.667 2.985 6.667 6.667s-2.985 6.667-6.667 6.667zM16 20c2.209 0 4-1.791 4-4s-1.791-4-4-4c-2.209 0-4 1.791-4 4s1.791 4 4 4zM22.667 10.667c-0.736 0-1.333-0.597-1.333-1.333s0.597-1.333 1.333-1.333c0.736 0 1.333 0.597 1.333 1.333s-0.597 1.333-1.333 1.333z"></path>
</symbol>
<symbol id="icon-phone" viewBox="0 0 32 32">
<path stroke-linejoin="round" stroke-linecap="round" stroke-miterlimit="4" stroke-width="2.6667" d="M20.067 6.667c2.666 0.534 4.733 2.6 5.26 5.224l0.007 0.043M20.067 1.333c5.575 0.637 9.956 5.014 10.595 10.531l0.005 0.056M29.333 22.56v4c0 0.003 0 0.007 0 0.011 0 1.473-1.194 2.667-2.667 2.667-0.084 0-0.168-0.004-0.251-0.012l0.011 0.001c-4.327-0.482-8.236-1.943-11.607-4.155l0.1 0.062c-3.242-2.081-5.919-4.758-7.938-7.897l-0.062-0.103c-2.158-3.286-3.62-7.214-4.083-11.442l-0.010-0.118c-0.007-0.072-0.011-0.155-0.011-0.24 0-1.472 1.192-2.665 2.664-2.667h4c0.008-0 0.017-0 0.026-0 1.341 0 2.451 0.99 2.639 2.279l0.002 0.014c0.188 1.4 0.515 2.665 0.973 3.864l-0.039-0.117c0.108 0.279 0.171 0.601 0.171 0.938 0 0.731-0.294 1.394-0.771 1.875l-1.693 1.693c1.932 3.356 4.644 6.068 7.897 7.945l0.103 0.055 1.693-1.693c0.482-0.476 1.144-0.771 1.875-0.771 0.337 0 0.66 0.063 0.957 0.177l-0.018-0.006c1.082 0.418 2.347 0.745 3.658 0.924l0.089 0.010c1.304 0.189 2.294 1.299 2.294 2.641 0 0.023-0 0.046-0.001 0.070l0-0.003z"></path>
</symbol>
<symbol id="icon-play" viewBox="0 0 32 32">
<path stroke-linejoin="round" stroke-linecap="round" stroke-miterlimit="4" stroke-width="2.6667" d="M6.667 4l18.667 12-18.667 12v-24z"></path>
</symbol>
<symbol id="icon-shopping" viewBox="0 0 32 32">
<path d="M27.675 7.127c-0.255-0.292-0.621-0.46-1.008-0.46h-18.425l-0.26-1.552c-0.107-0.643-0.663-1.115-1.315-1.115h-3c-0.737 0-1.333 0.596-1.333 1.333s0.596 1.333 1.333 1.333h1.871l2.48 14.885c0.011 0.060 0.041 0.109 0.060 0.165 0.021 0.071 0.039 0.137 0.072 0.201 0.043 0.088 0.1 0.163 0.16 0.239 0.041 0.052 0.079 0.104 0.127 0.149 0.077 0.072 0.167 0.123 0.257 0.173 0.051 0.028 0.095 0.065 0.149 0.087 0.155 0.063 0.317 0.1 0.489 0.1 0.001 0 14.668 0 14.668 0 0.737 0 1.333-0.596 1.333-1.333s-0.596-1.333-1.333-1.333h-13.537l-0.221-1.333h15.092c0.664 0 1.227-0.488 1.32-1.144l1.333-9.333c0.055-0.384-0.060-0.772-0.312-1.063zM25.129 9.333l-0.38 2.667h-4.749v-2.667h5.129zM18.667 9.333v2.667h-4v-2.667h4zM18.667 13.333v2.667h-4v-2.667h4zM13.333 9.333v2.667h-4c-0.071 0-0.135 0.020-0.197 0.040l-0.451-2.707h4.648zM9.352 13.333h3.981v2.667h-3.537l-0.444-2.667zM20 16v-2.667h4.557l-0.38 2.667h-4.177z"></path>
<path d="M13.333 26c0 1.105-0.895 2-2 2s-2-0.895-2-2c0-1.105 0.895-2 2-2s2 0.895 2 2z"></path>
<path d="M25.333 26c0 1.105-0.895 2-2 2s-2-0.895-2-2c0-1.105 0.895-2 2-2s2 0.895 2 2z"></path>
</symbol>
</defs>
</svg>
